<svg width="246" height="238" viewBox="0 0 246 238" fill="none" xmlns="http://www.w3.org/2000/svg">
<path opacity="0.1" d="M227.924 110.562C229.246 127.812 218.88 144.483 200.693 157.469C182.523 170.442 156.688 179.617 127.492 181.854C98.2961 184.091 71.3643 178.959 51.4305 168.905C31.477 158.842 18.6927 143.945 17.3709 126.694C16.0492 109.444 26.4148 92.773 44.6023 79.7872C62.7718 66.8142 88.6074 57.6392 117.803 55.4023C146.999 53.1653 173.931 58.2973 193.864 68.3508C213.818 78.4142 226.602 93.3114 227.924 110.562Z" stroke="white" stroke-width="2"/>
<path opacity="0.1" d="M202.169 188.087C190.788 201.117 171.63 205.403 149.622 201.526C127.635 197.653 102.986 185.649 80.9326 166.386C58.8793 147.124 43.6699 124.313 36.8751 103.046C30.0737 81.7591 31.7444 62.1995 43.1257 49.1692C54.507 36.139 73.6643 31.8532 95.6729 35.7302C117.66 39.6033 142.309 51.6071 164.362 70.8697C186.415 90.1323 201.625 112.943 208.42 134.209C215.221 155.497 213.55 175.056 202.169 188.087Z" stroke="white" stroke-width="2"/>
</svg>
