<svg width="342" height="331" viewBox="0 0 342 331" fill="none" xmlns="http://www.w3.org/2000/svg">
<path opacity="0.2" d="M318.128 154.098C319.985 178.336 305.417 201.693 280.003 219.839C254.606 237.972 218.518 250.782 177.759 253.905C136.999 257.028 99.3816 249.865 71.5188 235.813C43.6364 221.75 25.6801 200.886 23.823 176.647C21.9658 152.409 36.5338 129.052 61.9484 110.906C87.3452 92.7728 123.433 79.9632 164.192 76.8402C204.952 73.7172 242.569 80.8796 270.432 94.932C298.315 108.994 316.271 129.859 318.128 154.098Z" stroke="white" stroke-width="2"/>
<path opacity="0.2" d="M282.128 262.459C266.137 280.768 239.265 286.741 208.51 281.323C177.778 275.909 143.352 259.138 112.564 232.246C81.776 205.354 60.5275 173.496 51.03 143.771C41.5259 114.024 43.8302 86.5935 59.8222 68.2847C75.8141 49.9759 102.686 44.0036 133.44 49.4212C164.173 54.835 198.598 71.6064 229.387 98.4984C260.175 125.39 281.423 157.248 290.921 186.973C300.425 216.72 298.12 244.151 282.128 262.459Z" stroke="white" stroke-width="2"/>
</svg>
