<svg width="21" height="22" viewBox="0 0 21 22" fill="none" xmlns="http://www.w3.org/2000/svg">
<path d="M14.4375 8.05124C14.0787 8.05124 13.7812 7.75374 13.7812 7.39499V6.18749C13.7812 5.26874 13.3875 4.37624 12.705 3.75499C12.0138 3.12499 11.1213 2.83624 10.1762 2.92374C8.60125 3.07249 7.21875 4.68249 7.21875 6.36249V7.21124C7.21875 7.56999 6.92125 7.86749 6.5625 7.86749C6.20375 7.86749 5.90625 7.56999 5.90625 7.21124V6.35374C5.90625 3.99999 7.805 1.82999 10.0538 1.61124C11.3663 1.48874 12.6262 1.89999 13.5887 2.78374C14.5425 3.64999 15.0938 4.89249 15.0938 6.18749V7.39499C15.0938 7.75374 14.7963 8.05124 14.4375 8.05124Z" fill="#101828"/>
<path d="M13.1244 20.4062H7.87435C3.83185 20.4062 3.07935 18.525 2.88685 16.6962L2.2306 11.455C2.13435 10.51 2.09935 9.15375 3.0181 8.13875C3.8056 7.26375 5.10935 6.84375 6.99935 6.84375H13.9994C15.8981 6.84375 17.2019 7.2725 17.9806 8.13875C18.8906 9.15375 18.8644 10.51 18.7681 11.4375L18.1119 16.6962C17.9194 18.525 17.1669 20.4062 13.1244 20.4062ZM6.99935 8.15625C5.5206 8.15625 4.5056 8.445 3.98935 9.0225C3.5606 9.495 3.4206 10.2213 3.53435 11.3063L4.1906 16.5475C4.33935 17.9475 4.72435 19.1025 7.87435 19.1025H13.1244C16.2744 19.1025 16.6594 17.9563 16.8081 16.565L17.4644 11.3063C17.5781 10.2388 17.4381 9.5125 17.0094 9.03125C16.4931 8.445 15.4781 8.15625 13.9994 8.15625H6.99935Z" fill="#101828"/>
<path d="M13.4931 12.0063C13.0031 12.0063 12.6094 11.6125 12.6094 11.1313C12.6094 10.65 13.0031 10.2563 13.4844 10.2563C13.9656 10.2563 14.3594 10.65 14.3594 11.1313C14.3594 11.6125 13.9744 12.0063 13.4931 12.0063Z" fill="#101828"/>
<path d="M7.36812 12.0063C6.87813 12.0063 6.48438 11.6125 6.48438 11.1313C6.48438 10.65 6.87812 10.2563 7.35937 10.2563C7.84062 10.2563 8.23437 10.65 8.23437 11.1313C8.23437 11.6125 7.84937 12.0063 7.36812 12.0063Z" fill="#101828"/>
</svg>
