<svg width="20" height="20" viewBox="0 0 20 20" fill="none" xmlns="http://www.w3.org/2000/svg">
<g clip-path="url(#clip0_2800_2114)">
<path fill-rule="evenodd" clip-rule="evenodd" d="M9.96871 0.303048C11.7716 0.323621 13.4003 0.76672 14.8549 1.63234C16.2921 2.48067 17.4876 3.68352 18.3271 5.12586C19.1875 6.58917 19.6279 8.22775 19.6484 10.0416C19.5973 12.5234 18.8146 14.643 17.3001 16.4006C15.7857 18.1582 13.846 19.2455 11.8381 19.6623V12.7043H13.7364L14.1657 9.96992H11.2913V8.17899C11.2753 7.80771 11.3927 7.44298 11.6223 7.15074C11.8521 6.8577 12.257 6.70367 12.8367 6.68867H14.5725V4.29344C14.5476 4.28542 14.3113 4.25372 13.8635 4.19836C13.3557 4.13894 12.8451 4.1072 12.3338 4.10328C11.1767 4.10862 10.2616 4.43503 9.58848 5.0825C8.9153 5.72977 8.57143 6.66622 8.55688 7.89188V9.96992H6.36938V12.7043H8.55688V19.6624C6.09145 19.2456 4.1518 18.1582 2.63734 16.4007C1.12289 14.6431 0.340156 12.5234 0.289062 10.0416C0.309505 8.22767 0.749922 6.58909 1.61031 5.12586C2.44986 3.6835 3.64541 2.48064 5.08262 1.63231C6.53715 0.766863 8.16585 0.323803 9.96871 0.303048Z" fill="black"/>
</g>
<defs>
<clipPath id="clip0_2800_2114">
<rect width="20" height="20" fill="white"/>
</clipPath>
</defs>
</svg>
