<svg width="21" height="22" viewBox="0 0 21 22" fill="none" xmlns="http://www.w3.org/2000/svg">
<path d="M10.5 19.4437C10.2288 19.4437 9.96625 19.4087 9.7475 19.33C6.405 18.1837 1.09375 14.115 1.09375 8.10374C1.09375 5.04124 3.57 2.55624 6.615 2.55624C8.09375 2.55624 9.47625 3.13374 10.5 4.16624C11.5238 3.13374 12.9062 2.55624 14.385 2.55624C17.43 2.55624 19.9062 5.04999 19.9062 8.10374C19.9062 14.1237 14.595 18.1837 11.2525 19.33C11.0337 19.4087 10.7712 19.4437 10.5 19.4437ZM6.615 3.86874C4.29625 3.86874 2.40625 5.76749 2.40625 8.10374C2.40625 14.08 8.155 17.405 10.1763 18.0962C10.3337 18.1487 10.675 18.1487 10.8325 18.0962C12.845 17.405 18.6025 14.0887 18.6025 8.10374C18.6025 5.76749 16.7125 3.86874 14.3938 3.86874C13.0638 3.86874 11.83 4.48999 11.0337 5.56624C10.7887 5.89874 10.2288 5.89874 9.98375 5.56624C9.17 4.48124 7.945 3.86874 6.615 3.86874Z" fill="#101828"/>
</svg>
