<svg width="20" height="20" viewBox="0 0 20 20" fill="none" xmlns="http://www.w3.org/2000/svg">
<path d="M14.9996 0H4.99988C2.25019 0 0 2.25019 0 4.99988V15.0001C0 17.7491 2.25019 20 4.99988 20H14.9996C17.7493 20 19.9995 17.7491 19.9995 15.0001V4.99988C19.9995 2.25019 17.7493 0 14.9996 0ZM18.3328 15.0001C18.3328 16.8376 16.8381 18.3333 14.9996 18.3333H4.99988C3.16218 18.3333 1.66671 16.8376 1.66671 15.0001V4.99988C1.66671 3.16193 3.16218 1.66671 4.99988 1.66671H14.9996C16.8381 1.66671 18.3328 3.16193 18.3328 4.99988V15.0001Z" fill="black"/>
<path d="M15.4179 5.8331C16.1083 5.8331 16.6679 5.27347 16.6679 4.58313C16.6679 3.89279 16.1083 3.33316 15.4179 3.33316C14.7276 3.33316 14.168 3.89279 14.168 4.58313C14.168 5.27347 14.7276 5.8331 15.4179 5.8331Z" fill="black"/>
<path d="M9.99988 4.99988C7.23793 4.99988 5 7.23806 5 9.99976C5 12.7604 7.23793 15.0001 9.99988 15.0001C12.761 15.0001 14.9998 12.7604 14.9998 9.99976C14.9998 7.23806 12.761 4.99988 9.99988 4.99988ZM9.99988 13.3334C8.15915 13.3334 6.66671 11.841 6.66671 9.99976C6.66671 8.15854 8.15915 6.66659 9.99988 6.66659C11.8406 6.66659 13.333 8.15854 13.333 9.99976C13.333 11.841 11.8406 13.3334 9.99988 13.3334Z" fill="black"/>
</svg>
