<svg width="21" height="22" viewBox="0 0 21 22" fill="none" xmlns="http://www.w3.org/2000/svg">
<path d="M10.0625 19.5312C5.11875 19.5312 1.09375 15.5063 1.09375 10.5625C1.09375 5.61875 5.11875 1.59375 10.0625 1.59375C15.0063 1.59375 19.0312 5.61875 19.0312 10.5625C19.0312 15.5063 15.0063 19.5312 10.0625 19.5312ZM10.0625 2.90625C5.83625 2.90625 2.40625 6.345 2.40625 10.5625C2.40625 14.78 5.83625 18.2188 10.0625 18.2188C14.2887 18.2188 17.7188 14.78 17.7188 10.5625C17.7188 6.345 14.2887 2.90625 10.0625 2.90625Z" fill="#101828"/>
<path d="M19.2517 20.4062C19.0855 20.4062 18.9192 20.345 18.788 20.2137L17.038 18.4637C16.7842 18.21 16.7842 17.79 17.038 17.5362C17.2917 17.2825 17.7117 17.2825 17.9655 17.5362L19.7155 19.2862C19.9692 19.54 19.9692 19.96 19.7155 20.2137C19.5842 20.345 19.418 20.4062 19.2517 20.4062Z" fill="#101828"/>
</svg>
