<svg width="21" height="22" viewBox="0 0 21 22" fill="none" xmlns="http://www.w3.org/2000/svg">
<path d="M10.5 11.6562C7.72625 11.6562 5.46875 9.39875 5.46875 6.625C5.46875 3.85125 7.72625 1.59375 10.5 1.59375C13.2738 1.59375 15.5312 3.85125 15.5312 6.625C15.5312 9.39875 13.2738 11.6562 10.5 11.6562ZM10.5 2.90625C8.4525 2.90625 6.78125 4.5775 6.78125 6.625C6.78125 8.6725 8.4525 10.3438 10.5 10.3438C12.5475 10.3438 14.2188 8.6725 14.2188 6.625C14.2188 4.5775 12.5475 2.90625 10.5 2.90625Z" fill="#101828"/>
<path d="M18.0169 20.4062C17.6581 20.4062 17.3606 20.1087 17.3606 19.75C17.3606 16.7313 14.2806 14.2812 10.5006 14.2812C6.72062 14.2812 3.64062 16.7313 3.64062 19.75C3.64062 20.1087 3.34312 20.4062 2.98438 20.4062C2.62563 20.4062 2.32812 20.1087 2.32812 19.75C2.32812 16.0138 5.99437 12.9688 10.5006 12.9688C15.0069 12.9688 18.6731 16.0138 18.6731 19.75C18.6731 20.1087 18.3756 20.4062 18.0169 20.4062Z" fill="#101828"/>
</svg>
