<svg width="21" height="21" viewBox="0 0 21 21" fill="none" xmlns="http://www.w3.org/2000/svg">
<path d="M14.4375 7.55124C14.0787 7.55124 13.7812 7.25374 13.7812 6.89499V5.68749C13.7812 4.76874 13.3875 3.87624 12.705 3.25499C12.0138 2.62499 11.1213 2.33624 10.1762 2.42374C8.60125 2.57249 7.21875 4.18249 7.21875 5.86249V6.71124C7.21875 7.06999 6.92125 7.36749 6.5625 7.36749C6.20375 7.36749 5.90625 7.06999 5.90625 6.71124V5.85374C5.90625 3.49999 7.805 1.32999 10.0538 1.11124C11.3663 0.988737 12.6262 1.39999 13.5887 2.28374C14.5425 3.14999 15.0938 4.39249 15.0938 5.68749V6.89499C15.0938 7.25374 14.7963 7.55124 14.4375 7.55124Z" fill="#667085"/>
<path d="M13.1283 19.9062H7.87826C3.83576 19.9062 3.08326 18.025 2.89076 16.1962L2.23451 10.955C2.13826 10.01 2.10326 8.65375 3.02201 7.63875C3.80951 6.76375 5.11326 6.34375 7.00326 6.34375H14.0033C15.902 6.34375 17.2058 6.7725 17.9845 7.63875C18.8945 8.65375 18.8683 10.01 18.772 10.9375L18.1158 16.1962C17.9233 18.025 17.1708 19.9062 13.1283 19.9062ZM7.00326 7.65625C5.52451 7.65625 4.50951 7.945 3.99326 8.5225C3.56451 8.995 3.42451 9.72125 3.53826 10.8063L4.19451 16.0475C4.34326 17.4475 4.72826 18.6025 7.87826 18.6025H13.1283C16.2783 18.6025 16.6633 17.4563 16.812 16.065L17.4683 10.8063C17.582 9.73875 17.442 9.0125 17.0133 8.53125C16.497 7.945 15.482 7.65625 14.0033 7.65625H7.00326Z" fill="#667085"/>
<path d="M13.4931 11.5063C13.0031 11.5063 12.6094 11.1125 12.6094 10.6313C12.6094 10.15 13.0031 9.75626 13.4844 9.75626C13.9656 9.75626 14.3594 10.15 14.3594 10.6313C14.3594 11.1125 13.9744 11.5063 13.4931 11.5063Z" fill="#667085"/>
<path d="M7.36812 11.5063C6.87813 11.5063 6.48438 11.1125 6.48438 10.6313C6.48438 10.15 6.87812 9.75626 7.35937 9.75626C7.84062 9.75626 8.23437 10.15 8.23437 10.6313C8.23437 11.1125 7.84937 11.5063 7.36812 11.5063Z" fill="#667085"/>
</svg>
