<svg width="21" height="22" viewBox="0 0 21 22" fill="none" xmlns="http://www.w3.org/2000/svg">
<path d="M10.4999 12.1373C10.3862 12.1373 10.2724 12.111 10.1674 12.0498L2.44118 7.57854C2.12618 7.39479 2.02116 6.99227 2.20491 6.67727C2.38866 6.36227 2.78241 6.25725 3.10616 6.441L10.4999 10.7198L17.8499 6.46727C18.1649 6.28352 18.5674 6.39729 18.7512 6.70354C18.9349 7.01854 18.8212 7.42101 18.5149 7.60476L10.8412 12.0498C10.7274 12.1023 10.6137 12.1373 10.4999 12.1373Z" fill="#667085"/>
<path d="M10.5 20.0652C10.1413 20.0652 9.84375 19.7677 9.84375 19.4089V11.4727C9.84375 11.1139 10.1413 10.8164 10.5 10.8164C10.8587 10.8164 11.1562 11.1139 11.1562 11.4727V19.4089C11.1562 19.7677 10.8587 20.0652 10.5 20.0652Z" fill="#667085"/>
<path d="M10.4999 20.4062C9.72989 20.4062 8.95989 20.2399 8.36489 19.8987L3.69239 17.3087C2.42364 16.6087 1.42615 14.92 1.42615 13.4675V8.51494C1.42615 7.06244 2.42364 5.38248 3.69239 4.67373L8.36489 2.08371C9.55489 1.41871 11.4274 1.41871 12.6261 2.08371L17.2986 4.67373C18.5674 5.37373 19.5649 7.06244 19.5649 8.51494V13.4675C19.5649 13.5287 19.5649 13.6162 19.5386 13.73C19.4861 13.9575 19.3199 14.1412 19.1011 14.2112C18.8824 14.2812 18.6374 14.2375 18.4624 14.08C17.4649 13.205 15.9074 13.17 14.8399 14.0187C14.1661 14.5525 13.7724 15.3662 13.7724 16.2324C13.7724 16.7487 13.9124 17.2562 14.1836 17.6937C14.2536 17.8162 14.3236 17.9125 14.4024 18C14.5336 18.1487 14.5861 18.35 14.5511 18.5425C14.5161 18.735 14.3936 18.91 14.2186 18.9975L12.6174 19.8812C12.0312 20.24 11.2699 20.4062 10.4999 20.4062ZM10.4999 2.90621C9.95739 2.90621 9.40613 3.01997 9.01238 3.23872L4.33989 5.82874C3.49114 6.30124 2.75614 7.55244 2.75614 8.51494V13.4675C2.75614 14.43 3.49989 15.69 4.33989 16.1537L9.01238 18.7437C9.80863 19.1899 11.1999 19.1899 11.9961 18.7437L12.9761 18.2012C12.6524 17.6149 12.4774 16.9324 12.4774 16.2324C12.4774 14.9549 13.0462 13.7737 14.0349 12.9862C15.2337 12.0325 16.9311 11.8312 18.2611 12.4087V8.50623C18.2611 7.54373 17.5174 6.28373 16.6774 5.81998L12.0049 3.22996C11.5936 3.01996 11.0424 2.90621 10.4999 2.90621Z" fill="#667085"/>
<path d="M16.625 20.4062C14.3325 20.4062 12.4688 18.5425 12.4688 16.25C12.4688 14.9725 13.0375 13.7912 14.0262 13.0037C14.7612 12.4175 15.6887 12.0938 16.625 12.0938C18.9175 12.0938 20.7812 13.9575 20.7812 16.25C20.7812 17.44 20.265 18.5775 19.3638 19.365C18.6025 20.0387 17.6312 20.4062 16.625 20.4062ZM16.625 13.4062C15.9775 13.4062 15.365 13.625 14.8488 14.0362C14.175 14.57 13.7812 15.3837 13.7812 16.25C13.7812 17.8162 15.0588 19.0938 16.625 19.0938C17.3075 19.0938 17.9725 18.84 18.5062 18.385C19.1187 17.8425 19.4688 17.0725 19.4688 16.25C19.4688 14.6838 18.1912 13.4062 16.625 13.4062Z" fill="#667085"/>
<path d="M15.7499 17.7812C15.5312 17.7812 15.3124 17.6675 15.1899 17.4663C15.0061 17.1513 15.1024 16.7487 15.4174 16.565L16.1962 16.1013V15.1562C16.1962 14.7975 16.4937 14.5 16.8524 14.5C17.2112 14.5 17.5087 14.7975 17.5087 15.1562V16.4688C17.5087 16.6962 17.3862 16.915 17.1937 17.0288L16.0999 17.685C15.9774 17.755 15.8637 17.7812 15.7499 17.7812Z" fill="#667085"/>
</svg>
