<svg width="21" height="21" viewBox="0 0 21 21" fill="none" xmlns="http://www.w3.org/2000/svg">
<path d="M7.875 15.5312C7.7875 15.5312 7.70875 15.5138 7.62125 15.4788C7.37625 15.3825 7.21875 15.1375 7.21875 14.875V9.625C7.21875 9.26625 7.51625 8.96875 7.875 8.96875C8.23375 8.96875 8.53125 9.26625 8.53125 9.625V13.2912L9.16125 12.6613C9.415 12.4075 9.835 12.4075 10.0887 12.6613C10.3425 12.915 10.3425 13.335 10.0887 13.5887L8.33875 15.3388C8.21625 15.4613 8.04125 15.5312 7.875 15.5312Z" fill="#667085"/>
<path d="M7.87281 15.5313C7.70656 15.5313 7.54031 15.47 7.40906 15.3388L5.65906 13.5888C5.40531 13.335 5.40531 12.915 5.65906 12.6613C5.91281 12.4075 6.33281 12.4075 6.58656 12.6613L8.33656 14.4113C8.59031 14.665 8.59031 15.085 8.33656 15.3388C8.20531 15.47 8.03906 15.5313 7.87281 15.5313Z" fill="#667085"/>
<path d="M13.125 19.9062H7.875C3.12375 19.9062 1.09375 17.8762 1.09375 13.125V7.875C1.09375 3.12375 3.12375 1.09375 7.875 1.09375H12.25C12.6088 1.09375 12.9062 1.39125 12.9062 1.75C12.9062 2.10875 12.6088 2.40625 12.25 2.40625H7.875C3.84125 2.40625 2.40625 3.84125 2.40625 7.875V13.125C2.40625 17.1588 3.84125 18.5938 7.875 18.5938H13.125C17.1588 18.5938 18.5938 17.1588 18.5938 13.125V8.75C18.5938 8.39125 18.8913 8.09375 19.25 8.09375C19.6087 8.09375 19.9062 8.39125 19.9062 8.75V13.125C19.9062 17.8762 17.8762 19.9062 13.125 19.9062Z" fill="#667085"/>
<path d="M19.25 9.40624H15.75C12.7575 9.40624 11.5938 8.24249 11.5938 5.24999V1.74999C11.5938 1.48749 11.7513 1.24249 11.9963 1.14624C12.2412 1.04124 12.5212 1.10249 12.7137 1.28624L19.7137 8.28624C19.8975 8.46999 19.9587 8.75874 19.8538 9.00374C19.7487 9.24874 19.5125 9.40624 19.25 9.40624ZM12.9062 3.33374V5.24999C12.9062 7.50749 13.4925 8.09374 15.75 8.09374H17.6663L12.9062 3.33374Z" fill="#667085"/>
</svg>
