<svg width="21" height="22" viewBox="0 0 21 22" fill="none" xmlns="http://www.w3.org/2000/svg">
<path d="M15.5663 20.4062H5.43375C3.03625 20.4062 1.09375 18.455 1.09375 16.0575V9.57375C1.09375 8.38375 1.82875 6.8875 2.77375 6.1525L7.49 2.4775C8.9075 1.375 11.1737 1.3225 12.6438 2.355L18.0512 6.14375C19.0925 6.87 19.9062 8.4275 19.9062 9.69625V16.0662C19.9062 18.455 17.9638 20.4062 15.5663 20.4062ZM8.295 3.51L3.57875 7.185C2.9575 7.675 2.40625 8.78625 2.40625 9.57375V16.0575C2.40625 17.7288 3.7625 19.0938 5.43375 19.0938H15.5663C17.2375 19.0938 18.5938 17.7375 18.5938 16.0662V9.69625C18.5938 8.85625 17.99 7.6925 17.2987 7.22L11.8913 3.43125C10.8938 2.73125 9.24875 2.76625 8.295 3.51Z" fill="#667085"/>
<path d="M10.5 16.9062C10.1413 16.9062 9.84375 16.6088 9.84375 16.25V13.625C9.84375 13.2663 10.1413 12.9688 10.5 12.9688C10.8587 12.9688 11.1562 13.2663 11.1562 13.625V16.25C11.1562 16.6088 10.8587 16.9062 10.5 16.9062Z" fill="#667085"/>
</svg>
