<svg width="21" height="22" viewBox="0 0 21 22" fill="none" xmlns="http://www.w3.org/2000/svg">
<path d="M10.5034 12.8988C8.63969 12.8988 7.11719 11.385 7.11719 9.51251C7.11719 7.64001 8.63969 6.13501 10.5034 6.13501C12.3672 6.13501 13.8897 7.64876 13.8897 9.52126C13.8897 11.3938 12.3672 12.8988 10.5034 12.8988ZM10.5034 7.44751C9.36594 7.44751 8.42969 8.37501 8.42969 9.52126C8.42969 10.6675 9.35719 11.595 10.5034 11.595C11.6497 11.595 12.5772 10.6675 12.5772 9.52126C12.5772 8.37501 11.6409 7.44751 10.5034 7.44751Z" fill="#667085"/>
<path d="M10.5014 20.415C9.20644 20.415 7.90269 19.925 6.88769 18.9538C4.30644 16.4688 1.45394 12.505 2.53019 7.78875C3.50144 3.51 7.23769 1.59375 10.5014 1.59375C10.5014 1.59375 10.5014 1.59375 10.5102 1.59375C13.7739 1.59375 17.5102 3.51 18.4814 7.7975C19.5489 12.5138 16.6964 16.4688 14.1152 18.9538C13.1002 19.925 11.7964 20.415 10.5014 20.415ZM10.5014 2.90625C7.95519 2.90625 4.68269 4.2625 3.81644 8.0775C2.87144 12.1988 5.46144 15.7513 7.80644 18C9.32019 19.4613 11.6914 19.4613 13.2052 18C15.5414 15.7513 18.1314 12.1988 17.2039 8.0775C16.3289 4.2625 13.0477 2.90625 10.5014 2.90625Z" fill="#667085"/>
</svg>
